<?xml version="1.0" encoding="UTF-8" standalone="no"?>
<svg
   id="primary_logo_-_single_color_-_white"
   data-name="primary logo - single color - white"
   viewBox="0 0 83.954484 110.13253"
   version="1.1"
   sodipodi:docname="arxiv-logo-one-color-white.svg"
   inkscape:export-filename="../code/nianticspatial.github.io/ace-g/code/nianticspatial.github.io/ace-g/code/nianticspatial.github.io/ace-g/code/nianticspatial.github.io/ace-g/code/nianticspatial.github.io/ace-g/code/nianticspatial.github.io/ace-g/code/nianticspatial.github.io/ace-g/code/nianticspatial.github.io/ace-g/code/nianticspatial.github.io/ace-g/code/nianticspatial.github.io/ace-g/static/arxiv.svg"
   inkscape:export-xdpi="96"
   inkscape:export-ydpi="96"
   width="83.954483"
   height="110.13253"
   inkscape:version="1.4.2 (ebf0e940, 2025-05-08)"
   xmlns:inkscape="http://www.inkscape.org/namespaces/inkscape"
   xmlns:sodipodi="http://sodipodi.sourceforge.net/DTD/sodipodi-0.dtd"
   xmlns="http://www.w3.org/2000/svg"
   xmlns:svg="http://www.w3.org/2000/svg">
  <defs
     id="defs8" />
  <sodipodi:namedview
     id="namedview8"
     pagecolor="#151515"
     bordercolor="#000000"
     borderopacity="0.25"
     inkscape:showpageshadow="2"
     inkscape:pageopacity="0.0"
     inkscape:pagecheckerboard="0"
     inkscape:deskcolor="#d1d1d1"
     inkscape:zoom="2.6712594"
     inkscape:cx="58.773776"
     inkscape:cy="24.333092"
     inkscape:window-width="2560"
     inkscape:window-height="1387"
     inkscape:window-x="0"
     inkscape:window-y="25"
     inkscape:window-maximized="1"
     inkscape:current-layer="primary_logo_-_single_color_-_white" />
  <path
     d="m 48.981306,46.228 24.36,-29.89 c 1.492,-1.989 2.2,-3.03 1.492,-4.723 a 5.142,5.142 0 0 0 -4.481,-3.161 v 0 a 4.024,4.024 0 0 0 -3.008,1.108 l -26.139,28.26 z"
     fill="#ffffff"
     id="path1" />
  <path
     d="m 82.278306,102.069 -32.363,-38.283 -0.972,1.033 -7.789,-9.214 -7.743,-9.357 -4.695,5.076 a 4.769,4.769 0 0 0 0.015,6.53 l 47.786,51.074 a 3.913,3.913 0 0 0 3.137,1.192 4.394,4.394 0 0 0 4.027,-2.818 c 0.724,-1.73 -0.076,-3.441 -1.403,-5.233 z"
     fill="#ffffff"
     id="path2" />
  <path
     d="m 35.220306,64.815 6.052,6.485 -26.553,28.128 a 2.98,2.98 0 0 1 -2.275,1.194 3.449,3.449 0 0 1 -3.2410003,-2.144 c -0.513,-1.231 0.166,-3.15 1.1220003,-4.168 l 0.023,-0.024 0.021,-0.026 24.851,-29.448 m -0.047,-1.882 -25.7600003,30.524 c -1.286,1.372 -2.084,3.777 -1.365,5.5 a 4.705,4.705 0 0 0 4.4000003,2.914 4.191,4.191 0 0 0 3.161,-1.563 l 27.382,-29.007 -7.814,-8.372 z"
     fill="#ffffff"
     id="path3" />
  <path
     d="m 4.5433057,1.248 h 0.077 c 1,0.024 2.236,1.245 2.589,1.669 l 0.023,0.028 0.024,0.026 46.6640003,50.433 a 3.173,3.173 0 0 1 -0.034,4.336 l -4.893,5.2 -6.876,-8.134 L 2.6573057,7.128 c -1.508,-2.166 -1.617,-2.836 -1.191,-3.858 a 3.353,3.353 0 0 1 3.077,-2.02 m 0,-1.25 A 4.606,4.606 0 0 0 0.31230574,2.789 c -0.705,1.692 -0.2,2.88 1.34899996,5.1 l 39.4930003,47.722 7.789,9.214 5.853,-6.221 a 4.417,4.417 0 0 0 0.042,-6.042 L 8.1743057,2.128 c 0,0 -1.713,-2.08 -3.524,-2.124 z"
     fill="#ffffff"
     id="path8" />
</svg>
