<svg width="1746" height="967" xmlns="http://www.w3.org/2000/svg" xmlns:xlink="http://www.w3.org/1999/xlink" xml:space="preserve" overflow="hidden" style='background-color: #1b1b1b;'><g transform="translate(-105 -582)"><g><path d="M112.5 723.509C112.5 704.727 127.726 689.5 146.509 689.5L694.491 689.5C713.273 689.5 728.5 704.727 728.5 723.509L728.5 1026.49C728.5 1045.27 713.273 1060.5 694.491 1060.5L146.509 1060.5C127.726 1060.5 112.5 1045.27 112.5 1026.49Z" stroke="#FFFFFF" stroke-width="9.16667" stroke-linecap="butt" stroke-linejoin="round" stroke-miterlimit="10" stroke-opacity="1" fill="none" fill-rule="evenodd"/><text fill="#FFFFFF" fill-opacity="1" font-family="Figtree,Figtree_MSFontService,sans-serif" font-style="normal" font-variant="normal" font-weight="400" font-stretch="normal" font-size="55" text-anchor="start" direction="ltr" writing-mode="lr-tb" unicode-bidi="normal" text-decoration="none" transform="matrix(1 0 0 1 319.36 751)">Scene X</text><text fill="#FFFFFF" fill-opacity="1" font-family="Figtree,Figtree_MSFontService,sans-serif" font-style="normal" font-variant="normal" font-weight="400" font-stretch="normal" font-size="55" text-anchor="start" direction="ltr" writing-mode="lr-tb" unicode-bidi="normal" text-decoration="none" transform="matrix(1 0 0 1 521.027 751)"> </text><rect x="155.5" y="777.5" width="193" height="109" stroke="#FFFFFF" stroke-width="4.58333" stroke-linecap="butt" stroke-linejoin="round" stroke-miterlimit="10" stroke-opacity="1" fill="#1D1D1D" fill-opacity="1"/><rect x="166.5" y="789.5" width="194" height="109" stroke="#FFFFFF" stroke-width="4.58333" stroke-linecap="butt" stroke-linejoin="round" stroke-miterlimit="10" stroke-opacity="1" fill="#1D1D1D" fill-opacity="1"/><rect x="178.5" y="801.5" width="194" height="109" stroke="#FFFFFF" stroke-width="4.58333" stroke-linecap="butt" stroke-linejoin="round" stroke-miterlimit="10" stroke-opacity="1" fill="#1D1D1D" fill-opacity="1"/><rect x="190.5" y="813.5" width="194" height="109" stroke="#FFFFFF" stroke-width="4.58333" stroke-linecap="butt" stroke-linejoin="round" stroke-miterlimit="10" stroke-opacity="1" fill="#1D1D1D" fill-opacity="1"/><rect x="202.5" y="825.5" width="194" height="110" stroke="#FFFFFF" stroke-width="4.58333" stroke-linecap="butt" stroke-linejoin="round" stroke-miterlimit="10" stroke-opacity="1" fill="#1D1D1D" fill-opacity="1"/><rect x="214.5" y="838.5" width="194" height="109" stroke="#FFFFFF" stroke-width="4.58333" stroke-linecap="butt" stroke-linejoin="round" stroke-miterlimit="10" stroke-opacity="1" fill="#1D1D1D" fill-opacity="1"/><text fill="#FFFFFF" fill-opacity="1" font-family="Figtree,Figtree_MSFontService,sans-serif" font-style="normal" font-variant="normal" font-weight="400" font-stretch="normal" font-size="55" text-anchor="start" direction="ltr" writing-mode="lr-tb" unicode-bidi="normal" text-decoration="none" transform="matrix(1 0 0 1 192.464 1013)">Images</text><text fill="#FFFFFF" fill-opacity="1" font-family="Figtree,Figtree_MSFontService,sans-serif" font-style="normal" font-variant="normal" font-weight="400" font-stretch="normal" font-size="55" text-anchor="start" direction="ltr" writing-mode="lr-tb" unicode-bidi="normal" text-decoration="none" transform="matrix(1 0 0 1 370.069 1013)"> </text><text fill="#FFFFFF" fill-opacity="1" font-family="Figtree,Figtree_MSFontService,sans-serif" font-style="normal" font-variant="normal" font-weight="400" font-stretch="normal" font-size="55" text-anchor="start" direction="ltr" writing-mode="lr-tb" unicode-bidi="normal" text-decoration="none" transform="matrix(1 0 0 1 507.662 1016)">Poses</text><text fill="#FFFFFF" fill-opacity="1" font-family="Figtree,Figtree_MSFontService,sans-serif" font-style="normal" font-variant="normal" font-weight="400" font-stretch="normal" font-size="55" text-anchor="start" direction="ltr" writing-mode="lr-tb" unicode-bidi="normal" text-decoration="none" transform="matrix(1 0 0 1 653.183 1016)"> </text><path d="M0 0 29.1439 9.8206" stroke="#FF0000" stroke-width="4.58333" stroke-linecap="butt" stroke-linejoin="round" stroke-miterlimit="10" stroke-opacity="1" fill="none" fill-rule="evenodd" transform="matrix(1 0 0 -1 515.5 918.321)"/><path d="M526.5 847.5 531.403 872.363" stroke="#FF0000" stroke-width="4.58333" stroke-linecap="butt" stroke-linejoin="round" stroke-miterlimit="10" stroke-opacity="1" fill="none" fill-rule="evenodd"/><path d="M0 0 29.1439 12.9553" stroke="#FF0000" stroke-width="4.58333" stroke-linecap="butt" stroke-linejoin="round" stroke-miterlimit="10" stroke-opacity="1" fill="none" fill-rule="evenodd" transform="matrix(1 0 0 -1 589.5 835.455)"/><path d="M0 0 30.9079 11.6139" stroke="#FF0000" stroke-width="4.58333" stroke-linecap="butt" stroke-linejoin="round" stroke-miterlimit="10" stroke-opacity="1" fill="none" fill-rule="evenodd" transform="matrix(1 0 0 -1 611.5 871.114)"/><path d="M582.5 914.5 608.371 923.267" stroke="#FF0000" stroke-width="4.58333" stroke-linecap="butt" stroke-linejoin="round" stroke-miterlimit="10" stroke-opacity="1" fill="none" fill-rule="evenodd"/><path d="M537.5 786.5 566.644 798.404" stroke="#FF0000" stroke-width="4.58333" stroke-linecap="butt" stroke-linejoin="round" stroke-miterlimit="10" stroke-opacity="1" fill="none" fill-rule="evenodd"/><path d="M0 0 4.68222 18.7635" stroke="#00FA00" stroke-width="4.58333" stroke-linecap="butt" stroke-linejoin="round" stroke-miterlimit="10" stroke-opacity="1" fill="none" fill-rule="evenodd" transform="matrix(-1 0 0 1 526.182 847.5)"/><path d="M0 0 8.92631 27.8179" stroke="#00FA00" stroke-width="4.58333" stroke-linecap="butt" stroke-linejoin="round" stroke-miterlimit="10" stroke-opacity="1" fill="none" fill-rule="evenodd" transform="matrix(-1 0 0 1 537.426 786.5)"/><path d="M589.5 835.5 600.326 858.406" stroke="#00FA00" stroke-width="4.58333" stroke-linecap="butt" stroke-linejoin="round" stroke-miterlimit="10" stroke-opacity="1" fill="none" fill-rule="evenodd"/><path d="M611.5 870.5 618.557 891.219" stroke="#00FA00" stroke-width="4.58333" stroke-linecap="butt" stroke-linejoin="round" stroke-miterlimit="10" stroke-opacity="1" fill="none" fill-rule="evenodd"/><path d="M0 0 6.40187 25.0189" stroke="#00FA00" stroke-width="4.58333" stroke-linecap="butt" stroke-linejoin="round" stroke-miterlimit="10" stroke-opacity="1" fill="none" fill-rule="evenodd" transform="matrix(-1 0 0 1 580.902 913.5)"/><path d="M515.5 918.5 525.96 943.674" stroke="#00FA00" stroke-width="4.58333" stroke-linecap="butt" stroke-linejoin="round" stroke-miterlimit="10" stroke-opacity="1" fill="none" fill-rule="evenodd"/><path d="M0 0 16.2835 12.6731" stroke="#0432FF" stroke-width="4.58333" stroke-linecap="butt" stroke-linejoin="round" stroke-miterlimit="10" stroke-opacity="1" fill="none" fill-rule="evenodd" transform="matrix(-1 0 0 1 596.784 900.5)"/><path d="M0 0 11.6265 14.0311" stroke="#0432FF" stroke-width="4.58333" stroke-linecap="butt" stroke-linejoin="round" stroke-miterlimit="10" stroke-opacity="1" fill="none" fill-rule="evenodd" transform="matrix(1 0 0 -1 611.5 870.531)"/><path d="M0 0 9.77513 20.494" stroke="#0432FF" stroke-width="4.58333" stroke-linecap="butt" stroke-linejoin="round" stroke-miterlimit="10" stroke-opacity="1" fill="none" fill-rule="evenodd" transform="matrix(-1 0 0 1 599.275 814.5)"/><path d="M0 0 14.5718 12.7449" stroke="#0432FF" stroke-width="4.58333" stroke-linecap="butt" stroke-linejoin="round" stroke-miterlimit="10" stroke-opacity="1" fill="none" fill-rule="evenodd" transform="matrix(-1 0 0 1 552.072 773.5)"/><path d="M0 0 20.1096 2.43999" stroke="#0432FF" stroke-width="4.58333" stroke-linecap="butt" stroke-linejoin="round" stroke-miterlimit="10" stroke-opacity="1" fill="none" fill-rule="evenodd" transform="matrix(-1 0 0 1 547.61 847.5)"/><path d="M511.5 900.5 515.57 918.82" stroke="#0432FF" stroke-width="4.58333" stroke-linecap="butt" stroke-linejoin="round" stroke-miterlimit="10" stroke-opacity="1" fill="none" fill-rule="evenodd"/><rect x="740.5" y="1232.5" width="353" height="226" stroke="#FFFFFF" stroke-width="9.16667" stroke-linecap="butt" stroke-linejoin="round" stroke-miterlimit="10" stroke-opacity="1" fill="none"/><text fill="#FFFFFF" fill-opacity="1" font-family="Figtree,Figtree_MSFontService,sans-serif" font-style="normal" font-variant="normal" font-weight="400" font-stretch="normal" font-size="55" text-anchor="start" direction="ltr" writing-mode="lr-tb" unicode-bidi="normal" text-decoration="none" transform="matrix(1 0 0 1 809.204 1298)">Mapping </text><text fill="#FFFFFF" fill-opacity="1" font-family="Figtree,Figtree_MSFontService,sans-serif" font-style="normal" font-variant="normal" font-weight="400" font-stretch="normal" font-size="55" text-anchor="start" direction="ltr" writing-mode="lr-tb" unicode-bidi="normal" text-decoration="none" transform="matrix(1 0 0 1 840.416 1364)">Buffer</text><text fill="#FFFFFF" fill-opacity="1" font-family="Figtree,Figtree_MSFontService,sans-serif" font-style="normal" font-variant="normal" font-weight="400" font-stretch="normal" font-size="55" text-anchor="start" direction="ltr" writing-mode="lr-tb" unicode-bidi="normal" text-decoration="none" transform="matrix(1 0 0 1 993.385 1364)"> </text><text fill="#FFFFFF" fill-opacity="1" font-family="Figtree,Figtree_MSFontService,sans-serif" font-style="normal" font-variant="normal" font-weight="400" font-stretch="normal" font-size="55" text-anchor="start" direction="ltr" writing-mode="lr-tb" unicode-bidi="normal" text-decoration="none" transform="matrix(1 0 0 1 816.079 1430)">Scene X</text><text fill="#FFFFFF" fill-opacity="1" font-family="Figtree,Figtree_MSFontService,sans-serif" font-style="normal" font-variant="normal" font-weight="400" font-stretch="normal" font-size="55" text-anchor="start" direction="ltr" writing-mode="lr-tb" unicode-bidi="normal" text-decoration="none" transform="matrix(1 0 0 1 1017.75 1430)"> </text><path d="M401.5 1146.5 582.5 1200.19 582.5 1489.81 401.5 1543.5Z" stroke="#FFFFFF" stroke-width="9.16667" stroke-linecap="butt" stroke-linejoin="round" stroke-miterlimit="10" stroke-opacity="1" fill="none" fill-rule="evenodd"/><text fill="#FFFFFF" fill-opacity="1" font-family="Figtree,Figtree_MSFontService,sans-serif" font-style="normal" font-variant="normal" font-weight="400" font-stretch="normal" font-size="55" text-anchor="start" direction="ltr" writing-mode="lr-tb" unicode-bidi="normal" text-decoration="none" transform="matrix(6.12323e-17 1 -1 6.12323e-17 497.622 1269)">Image </text><text fill="#FFFFFF" fill-opacity="1" font-family="Figtree,Figtree_MSFontService,sans-serif" font-style="normal" font-variant="normal" font-weight="400" font-stretch="normal" font-size="55" text-anchor="start" direction="ltr" writing-mode="lr-tb" unicode-bidi="normal" text-decoration="none" transform="matrix(6.12323e-17 1 -1 6.12323e-17 431.622 1242)">Encoder</text><text fill="#FFFFFF" fill-opacity="1" font-family="Figtree,Figtree_MSFontService,sans-serif" font-style="normal" font-variant="normal" font-weight="400" font-stretch="normal" font-size="55" text-anchor="start" direction="ltr" writing-mode="lr-tb" unicode-bidi="normal" text-decoration="none" transform="matrix(6.12323e-17 1 -1 6.12323e-17 431.622 1448)"> </text><path d="M259.019 1037.23 252.889 1075.14 247.249 1112.43 244.767 1130.63 242.585 1148.47 240.767 1165.85 239.372 1182.71 238.459 1198.96 238.088 1214.53 238.315 1229.34 239.197 1243.31 240.788 1256.36 243.138 1268.41 246.292 1279.37 250.286 1289.17 255.136 1297.77 260.81 1305.29 267.267 1311.83 274.474 1317.51 282.4 1322.39 291.011 1326.55 300.264 1330.04 310.105 1332.93 320.477 1335.28 331.318 1337.14 342.565 1338.59 354.152 1339.68 379.85 1341.09 379.348 1350.24 353.29 1348.81 341.394 1347.68 329.76 1346.18 318.447 1344.22 307.51 1341.73 297.008 1338.61 287.004 1334.79 277.568 1330.18 268.775 1324.69 260.712 1318.24 253.47 1310.78 247.135 1302.24 241.789 1292.61 237.478 1281.89 234.14 1270.16 231.688 1257.47 230.049 1243.89 229.149 1229.48 228.924 1214.31 229.307 1198.45 230.237 1181.95 231.65 1164.9 233.486 1147.35 235.684 1129.39 238.185 1111.06 243.839 1073.68 249.97 1035.77ZM240.921 1034.31C242.133 1026.81 249.193 1021.71 256.689 1022.93 264.186 1024.14 269.28 1031.2 268.068 1038.69 266.856 1046.19 259.796 1051.29 252.3 1050.07 244.803 1048.86 239.709 1041.8 240.921 1034.31ZM375.52 1331.76 402.5 1346.5 374.516 1359.24Z" fill="#FFFFFF" fill-rule="nonzero" fill-opacity="1"/><path d="M677.681 990.672 714.961 983.898 751.674 977.792 769.658 975.196 787.241 973.027 804.373 971.366 820.979 970.301 836.986 969.918 852.32 970.307 866.911 971.559 880.688 973.771 893.58 977.043 905.51 981.483 916.393 987.204C916.594 987.31 916.786 987.431 916.969 987.566L926.123 994.318C926.321 994.463 926.506 994.625 926.678 994.8L934.589 1002.88C934.751 1003.05 934.901 1003.22 935.036 1003.41L941.757 1012.77 947.69 1023.83 952.486 1035.95 956.252 1049.03 959.089 1062.97 961.097 1077.71 962.366 1093.16 962.987 1109.24 963.043 1125.89 962.618 1143 961.794 1160.52 959.273 1196.38 958.092 1210.06 948.959 1209.27 950.129 1195.74 952.637 1160.09 953.454 1142.77 953.876 1125.91 953.827 1109.6 953.23 1093.91 952.013 1078.94 950.105 1064.79 947.439 1051.55 943.955 1039.3 939.597 1028.13 934.312 1018.11 927.592 1008.76 928.039 1009.29 920.128 1001.21 920.682 1001.69 911.528 994.943 912.103 995.305 902.295 990.068 891.312 985.925 879.227 982.821 866.122 980.692 852.084 979.47 837.203 979.082 821.565 979.449 805.256 980.49 788.362 982.125 770.967 984.269 753.178 986.834 716.6 992.917 679.319 999.691ZM680.958 1008.71C673.486 1010.07 666.329 1005.11 664.972 997.639 663.614 990.167 668.57 983.01 676.042 981.653 683.514 980.295 690.671 985.251 692.029 992.723 693.386 1000.19 688.43 1007.35 680.958 1008.71ZM967.619 1206.29 951.552 1232.5 940.221 1203.92Z" fill="#FFFFFF" fill-rule="nonzero" fill-opacity="1"/><path d="M582.5 1340.92 717.85 1340.92 717.85 1350.08 582.5 1350.08ZM713.267 1331.75 740.767 1345.5 713.267 1359.25Z" fill="#FFFFFF" fill-rule="nonzero" fill-opacity="1"/><path d="M1397.5 602.5 1673.5 706.941 1673.5 1308.06 1397.5 1412.5Z" stroke="#FFFFFF" stroke-width="9.16667" stroke-linecap="butt" stroke-linejoin="round" stroke-miterlimit="10" stroke-opacity="1" fill="none" fill-rule="evenodd"/><text fill="#FFFFFF" fill-opacity="1" font-family="Figtree,Figtree_MSFontService,sans-serif" font-style="normal" font-variant="normal" font-weight="400" font-stretch="normal" font-size="55" text-anchor="start" direction="ltr" writing-mode="lr-tb" unicode-bidi="normal" text-decoration="none" transform="matrix(6.12323e-17 1 -1 6.12323e-17 1537.43 813)">Scene</text><text fill="#FFFFFF" fill-opacity="1" font-family="Figtree,Figtree_MSFontService,sans-serif" font-style="normal" font-variant="normal" font-weight="400" font-stretch="normal" font-size="55" text-anchor="start" direction="ltr" writing-mode="lr-tb" unicode-bidi="normal" text-decoration="none" transform="matrix(6.12323e-17 1 -1 6.12323e-17 1537.43 967)">-</text><text fill="#FFFFFF" fill-opacity="1" font-family="Figtree,Figtree_MSFontService,sans-serif" font-style="normal" font-variant="normal" font-weight="400" font-stretch="normal" font-size="55" text-anchor="start" direction="ltr" writing-mode="lr-tb" unicode-bidi="normal" text-decoration="none" transform="matrix(6.12323e-17 1 -1 6.12323e-17 1537.43 990)">agnostic</text><text fill="#FFFFFF" fill-opacity="1" font-family="Figtree,Figtree_MSFontService,sans-serif" font-style="normal" font-variant="normal" font-weight="400" font-stretch="normal" font-size="55" text-anchor="start" direction="ltr" writing-mode="lr-tb" unicode-bidi="normal" text-decoration="none" transform="matrix(6.12323e-17 1 -1 6.12323e-17 1537.43 1202)"> </text><text fill="#FFFFFF" fill-opacity="1" font-family="Figtree,Figtree_MSFontService,sans-serif" font-style="normal" font-variant="normal" font-weight="400" font-stretch="normal" font-size="55" text-anchor="start" direction="ltr" writing-mode="lr-tb" unicode-bidi="normal" text-decoration="none" transform="matrix(6.12323e-17 1 -1 6.12323e-17 1471.43 739)">Coordinate Regressor</text><text fill="#FFFFFF" fill-opacity="1" font-family="Figtree,Figtree_MSFontService,sans-serif" font-style="normal" font-variant="normal" font-weight="400" font-stretch="normal" font-size="55" text-anchor="start" direction="ltr" writing-mode="lr-tb" unicode-bidi="normal" text-decoration="none" transform="matrix(6.12323e-17 1 -1 6.12323e-17 1471.43 1275)"> </text><rect x="1308.5" y="1062.5" width="72.9999" height="354" stroke="#FFFFFF" stroke-width="9.16667" stroke-linecap="butt" stroke-linejoin="round" stroke-miterlimit="10" stroke-opacity="1" fill="none"/><text fill="#FFFFFF" fill-opacity="1" font-family="Figtree,Figtree_MSFontService,sans-serif" font-style="normal" font-variant="normal" font-weight="400" font-stretch="normal" font-size="55" text-anchor="start" direction="ltr" writing-mode="lr-tb" unicode-bidi="normal" text-decoration="none" transform="matrix(6.12323e-17 1 -1 6.12323e-17 1325.36 1102)">Patch Feat.</text><text fill="#FFFFFF" fill-opacity="1" font-family="Figtree,Figtree_MSFontService,sans-serif" font-style="normal" font-variant="normal" font-weight="400" font-stretch="normal" font-size="55" text-anchor="start" direction="ltr" writing-mode="lr-tb" unicode-bidi="normal" text-decoration="none" transform="matrix(6.12323e-17 1 -1 6.12323e-17 1325.36 1377)"> </text><rect x="1308" y="601" width="72.9999" height="64.0003" stroke="#F06C61" stroke-width="13.75" stroke-linecap="butt" stroke-linejoin="round" stroke-miterlimit="10" stroke-opacity="1" fill="none"/><text fill="#F06C61" fill-opacity="1" font-family="Figtree,Figtree_MSFontService,sans-serif" font-style="normal" font-variant="normal" font-weight="700" font-stretch="normal" font-size="55" text-anchor="start" direction="ltr" writing-mode="lr-tb" unicode-bidi="normal" text-decoration="none" transform="matrix(1 0 0 1 1074.85 654)">Scene X</text><text fill="#F06C61" fill-opacity="1" font-family="Figtree,Figtree_MSFontService,sans-serif" font-style="normal" font-variant="normal" font-weight="700" font-stretch="normal" font-size="55" text-anchor="start" direction="ltr" writing-mode="lr-tb" unicode-bidi="normal" text-decoration="none" transform="matrix(1 0 0 1 1280.52 654)"> </text><text fill="#F06C61" fill-opacity="1" font-family="Figtree,Figtree_MSFontService,sans-serif" font-style="normal" font-variant="normal" font-weight="700" font-stretch="normal" font-size="55" text-anchor="start" direction="ltr" writing-mode="lr-tb" unicode-bidi="normal" text-decoration="none" transform="matrix(1 0 0 1 996.929 720)">Map Codes</text><text fill="#F06C61" fill-opacity="1" font-family="Figtree,Figtree_MSFontService,sans-serif" font-style="normal" font-variant="normal" font-weight="700" font-stretch="normal" font-size="55" text-anchor="start" direction="ltr" writing-mode="lr-tb" unicode-bidi="normal" text-decoration="none" transform="matrix(1 0 0 1 1280.52 720)"> </text><rect x="1691.5" y="798.5" width="72.9999" height="411" stroke="#FFFFFF" stroke-width="9.16667" stroke-linecap="butt" stroke-linejoin="round" stroke-miterlimit="10" stroke-opacity="1" fill="none"/><text fill="#FFFFFF" fill-opacity="1" font-family="Figtree,Figtree_MSFontService,sans-serif" font-style="normal" font-variant="normal" font-weight="400" font-stretch="normal" font-size="55" text-anchor="start" direction="ltr" writing-mode="lr-tb" unicode-bidi="normal" text-decoration="none" transform="matrix(6.12323e-17 1 -1 6.12323e-17 1708.2 812)">3D Scene Coor.</text><text fill="#FFFFFF" fill-opacity="1" font-family="Figtree,Figtree_MSFontService,sans-serif" font-style="normal" font-variant="normal" font-weight="400" font-stretch="normal" font-size="55" text-anchor="start" direction="ltr" writing-mode="lr-tb" unicode-bidi="normal" text-decoration="none" transform="matrix(6.12323e-17 1 -1 6.12323e-17 1708.2 1195)"> </text><rect x="1764.5" y="798.5" width="72.0002" height="411" stroke="#FFFFFF" stroke-width="9.16667" stroke-linecap="butt" stroke-linejoin="round" stroke-miterlimit="10" stroke-opacity="1" fill="none"/><text fill="#FFFFFF" fill-opacity="1" font-family="Figtree,Figtree_MSFontService,sans-serif" font-style="normal" font-variant="normal" font-weight="400" font-stretch="normal" font-size="55" text-anchor="start" direction="ltr" writing-mode="lr-tb" unicode-bidi="normal" text-decoration="none" transform="matrix(6.12323e-17 1 -1 6.12323e-17 1781 859)">Uncertainty</text><text fill="#FFFFFF" fill-opacity="1" font-family="Figtree,Figtree_MSFontService,sans-serif" font-style="normal" font-variant="normal" font-weight="400" font-stretch="normal" font-size="55" text-anchor="start" direction="ltr" writing-mode="lr-tb" unicode-bidi="normal" text-decoration="none" transform="matrix(6.12323e-17 1 -1 6.12323e-17 1781 1149)"> </text><rect x="1307" y="680" width="73.0002" height="63.9999" stroke="#F06C61" stroke-width="13.75" stroke-linecap="butt" stroke-linejoin="round" stroke-miterlimit="10" stroke-opacity="1" fill="none"/><rect x="1307" y="759" width="73.0002" height="63.9999" stroke="#F06C61" stroke-width="13.75" stroke-linecap="butt" stroke-linejoin="round" stroke-miterlimit="10" stroke-opacity="1" fill="none"/><rect x="1307" y="838" width="73.0002" height="63.9999" stroke="#F06C61" stroke-width="13.75" stroke-linecap="butt" stroke-linejoin="round" stroke-miterlimit="10" stroke-opacity="1" fill="none"/><rect x="1307" y="917" width="73.0002" height="63.9999" stroke="#F06C61" stroke-width="13.75" stroke-linecap="butt" stroke-linejoin="round" stroke-miterlimit="10" stroke-opacity="1" fill="none"/><path d="M1118.3 1436.98 1127.46 1436.78 1127.66 1445.94 1118.5 1446.14ZM1136.72 1436.74 1140.06 1436.74 1145.9 1436.74 1145.89 1445.9 1140.07 1445.9 1136.73 1445.91ZM1155.07 1436.75 1164.24 1436.77 1164.22 1445.94 1155.05 1445.92ZM1173.41 1436.8 1182.57 1436.82 1182.55 1445.99 1173.38 1445.96ZM1191.74 1436.84 1200.91 1436.86 1200.88 1446.03 1191.72 1446.01ZM1210.07 1436.87 1219.23 1436.89 1219.22 1446.05 1210.06 1446.04ZM1228.39 1436.88 1237.56 1436.88 1237.56 1446.05 1228.4 1446.05ZM1246.72 1436.86 1255.88 1436.83 1255.91 1446 1246.74 1446.02ZM1265.04 1436.79 1274.2 1436.74 1274.25 1445.91 1265.09 1445.96ZM1283.35 1436.68 1292.52 1436.6 1292.6 1445.77 1283.43 1445.85ZM1301.67 1436.52 1310.84 1436.4 1310.95 1445.57 1301.78 1445.68ZM1320 1436.29 1322.46 1436.26 1329.14 1436.13 1329.31 1445.29 1322.58 1445.42 1320.12 1445.45ZM1338.3 1435.95 1347.47 1435.77 1347.64 1444.94 1338.48 1445.12ZM1356.63 1435.59 1365.79 1435.42 1365.97 1444.58 1356.81 1444.76ZM1374.91 1435.14 1384.07 1434.86 1384.35 1444.02 1375.19 1444.3ZM1393.23 1434.58 1402.39 1434.3 1402.67 1443.46 1393.51 1443.74ZM1411.51 1434 1420.66 1433.62 1421.04 1442.78 1411.88 1443.16ZM1429.82 1433.24 1431.93 1433.15 1438.94 1432.8 1439.4 1441.96 1432.31 1442.31 1430.2 1442.4ZM1448.1 1432.35 1453.31 1432.09 1457.2 1431.86 1457.75 1441.01 1453.76 1441.24 1448.55 1441.5ZM1466.36 1431.31 1474.23 1430.84 1475.45 1430.76 1476.1 1439.9 1474.77 1439.99 1466.9 1440.46ZM1484.6 1430.11 1493.74 1429.46 1494.39 1438.6 1485.24 1439.25ZM1502.82 1428.71 1511.95 1427.94 1512.72 1437.08 1503.58 1437.84ZM1521.01 1427.08 1530.13 1426.17 1531.03 1435.3 1521.91 1436.2ZM1539.16 1425.16 1548.26 1424.09 1549.33 1433.2 1540.23 1434.27ZM1557.25 1422.89 1566.32 1421.62 1567.59 1430.7 1558.52 1431.97ZM1575.25 1420.16 1583.06 1418.85 1584.13 1418.63 1585.95 1427.62 1584.57 1427.89 1576.76 1429.2ZM1593.12 1416.82 1597.24 1415.99 1601.93 1414.89 1604.02 1423.81 1599.05 1424.97 1594.93 1425.81ZM1610.57 1412.66 1615.62 1411.19 1619.2 1410.02 1622.04 1418.74 1618.18 1420 1613.13 1421.46ZM1627.53 1406.88 1630.96 1405.54 1635.6 1403.31 1639.55 1411.58 1634.29 1414.08 1630.86 1415.42ZM1643.45 1399.27 1649.55 1395.81 1651.08 1394.78 1656.14 1402.43 1654.08 1403.78 1647.98 1407.24ZM1658.47 1389.86 1665.78 1384.33 1671.31 1391.64 1664 1397.17ZM1672.57 1378.59 1674.36 1377.05 1679.1 1372.52 1685.43 1379.15 1680.32 1384.02 1678.53 1385.56ZM1685.36 1366.16 1688.95 1362.36 1691.37 1359.53 1698.33 1365.5 1695.62 1368.65 1692.03 1372.46ZM1697.12 1352.66 1702.04 1346.39 1702.63 1345.57 1710.07 1350.93 1709.26 1352.05 1704.34 1358.32ZM1707.99 1338.13 1708.04 1338.06 1712.97 1330.64 1720.6 1335.72 1715.48 1343.42 1715.43 1343.49ZM1717.58 1322.99 1722.26 1315.11 1730.14 1319.79 1725.46 1327.67ZM1726.51 1307.3 1730.71 1299.15 1738.85 1303.36 1734.65 1311.5ZM1734.6 1291.12 1738.38 1282.77 1746.73 1286.55 1742.95 1294.9ZM1741.92 1274.53 1745.32 1266.02 1753.83 1269.43 1750.43 1277.94ZM1748.54 1257.59 1749.59 1254.72 1751.56 1249.02 1760.22 1252.01 1758.2 1257.87 1757.15 1260.74ZM1754.35 1240.53 1756.9 1231.73 1765.71 1234.28 1763.15 1243.08ZM1123.54 1455.11 1095.5 1442.5 1122.41 1427.64ZM1747.23 1232.62 1767.5 1209.5 1773.83 1239.59Z" fill="#FFFFFF" fill-rule="nonzero" fill-opacity="1"/><path d="M1093.54 1340.92 1283.84 1342.58 1283.76 1351.75 1093.46 1350.08ZM1279.34 1333.37 1306.72 1347.36 1279.1 1360.87Z" fill="#FFFFFF" fill-rule="nonzero" fill-opacity="1"/></g></g></svg>
