<svg width="2746" height="1183" xmlns="http://www.w3.org/2000/svg" xmlns:xlink="http://www.w3.org/1999/xlink" xml:space="preserve" overflow="hidden"><g transform="translate(-224 -279)"><g><path d="M2733.5 772.5 2764.89 801.225" stroke="#0432FF" stroke-width="4.58333" stroke-linecap="round" stroke-linejoin="round" stroke-miterlimit="10" stroke-opacity="1" fill="none" fill-rule="evenodd"/><path d="M976.5 303.5 1340.5 441.241 1340.5 1231.76 976.5 1369.5Z" stroke="#FFFFFF" stroke-width="9.16667" stroke-linecap="butt" stroke-linejoin="round" stroke-miterlimit="10" stroke-opacity="1" fill="none" fill-rule="evenodd"/><text fill="#FFFFFF" fill-opacity="1" font-family="Figtree,Figtree_MSFontService,sans-serif" font-style="normal" font-variant="normal" font-weight="400" font-stretch="normal" font-size="69" text-anchor="start" direction="ltr" writing-mode="lr-tb" unicode-bidi="normal" text-decoration="none" transform="matrix(6.12323e-17 1 -1 6.12323e-17 1159.97 593)">Scene</text><text fill="#FFFFFF" fill-opacity="1" font-family="Figtree,Figtree_MSFontService,sans-serif" font-style="normal" font-variant="normal" font-weight="400" font-stretch="normal" font-size="69" text-anchor="start" direction="ltr" writing-mode="lr-tb" unicode-bidi="normal" text-decoration="none" transform="matrix(6.12323e-17 1 -1 6.12323e-17 1159.97 786)">-</text><text fill="#FFFFFF" fill-opacity="1" font-family="Figtree,Figtree_MSFontService,sans-serif" font-style="normal" font-variant="normal" font-weight="400" font-stretch="normal" font-size="69" text-anchor="start" direction="ltr" writing-mode="lr-tb" unicode-bidi="normal" text-decoration="none" transform="matrix(6.12323e-17 1 -1 6.12323e-17 1159.97 815)">agnostic</text><text fill="#FFFFFF" fill-opacity="1" font-family="Figtree,Figtree_MSFontService,sans-serif" font-style="normal" font-variant="normal" font-weight="400" font-stretch="normal" font-size="69" text-anchor="start" direction="ltr" writing-mode="lr-tb" unicode-bidi="normal" text-decoration="none" transform="matrix(6.12323e-17 1 -1 6.12323e-17 1159.97 1080)"> </text><text fill="#FFFFFF" fill-opacity="1" font-family="Figtree,Figtree_MSFontService,sans-serif" font-style="normal" font-variant="normal" font-weight="400" font-stretch="normal" font-size="69" text-anchor="start" direction="ltr" writing-mode="lr-tb" unicode-bidi="normal" text-decoration="none" transform="matrix(6.12323e-17 1 -1 6.12323e-17 1076.97 499)">Coordinate Regressor</text><text fill="#FFFFFF" fill-opacity="1" font-family="Figtree,Figtree_MSFontService,sans-serif" font-style="normal" font-variant="normal" font-weight="400" font-stretch="normal" font-size="69" text-anchor="start" direction="ltr" writing-mode="lr-tb" unicode-bidi="normal" text-decoration="none" transform="matrix(6.12323e-17 1 -1 6.12323e-17 1076.97 1173)"> </text><rect x="859.5" y="909.5" width="96.0002" height="464" stroke="#FFFFFF" stroke-width="9.16667" stroke-linecap="butt" stroke-linejoin="round" stroke-miterlimit="10" stroke-opacity="1" fill="none"/><text fill="#FFFFFF" fill-opacity="1" font-family="Figtree,Figtree_MSFontService,sans-serif" font-style="normal" font-variant="normal" font-weight="400" font-stretch="normal" font-size="69" text-anchor="start" direction="ltr" writing-mode="lr-tb" unicode-bidi="normal" text-decoration="none" transform="matrix(6.12323e-17 1 -1 6.12323e-17 883.268 969)">Patch Feat.</text><text fill="#FFFFFF" fill-opacity="1" font-family="Figtree,Figtree_MSFontService,sans-serif" font-style="normal" font-variant="normal" font-weight="400" font-stretch="normal" font-size="69" text-anchor="start" direction="ltr" writing-mode="lr-tb" unicode-bidi="normal" text-decoration="none" transform="matrix(6.12323e-17 1 -1 6.12323e-17 883.268 1313)"> </text><rect x="858.5" y="302.5" width="96.0002" height="84.9999" stroke="#FFFFFF" stroke-width="9.16667" stroke-linecap="butt" stroke-linejoin="round" stroke-miterlimit="10" stroke-opacity="1" fill="none"/><text fill="#FFFFFF" fill-opacity="1" font-family="Figtree,Figtree_MSFontService,sans-serif" font-style="normal" font-variant="normal" font-weight="400" font-stretch="normal" font-size="69" text-anchor="start" direction="ltr" writing-mode="lr-tb" unicode-bidi="normal" text-decoration="none" transform="matrix(1 0 0 1 579.163 368)">Scene X</text><text fill="#FFFFFF" fill-opacity="1" font-family="Figtree,Figtree_MSFontService,sans-serif" font-style="normal" font-variant="normal" font-weight="400" font-stretch="normal" font-size="69" text-anchor="start" direction="ltr" writing-mode="lr-tb" unicode-bidi="normal" text-decoration="none" transform="matrix(1 0 0 1 832.392 368)"> </text><text fill="#FFFFFF" fill-opacity="1" font-family="Figtree,Figtree_MSFontService,sans-serif" font-style="normal" font-variant="normal" font-weight="400" font-stretch="normal" font-size="69" text-anchor="start" direction="ltr" writing-mode="lr-tb" unicode-bidi="normal" text-decoration="none" transform="matrix(1 0 0 1 481.194 451)">Map Codes</text><text fill="#FFFFFF" fill-opacity="1" font-family="Figtree,Figtree_MSFontService,sans-serif" font-style="normal" font-variant="normal" font-weight="400" font-stretch="normal" font-size="69" text-anchor="start" direction="ltr" writing-mode="lr-tb" unicode-bidi="normal" text-decoration="none" transform="matrix(1 0 0 1 832.392 451)"> </text><path d="M2846.41 763.492 2875.57 806.85 2790.33 879.062 2770.5 834.077 2846.41 763.492Z" stroke="#FFFFFF" stroke-width="4.58333" stroke-linecap="butt" stroke-linejoin="round" stroke-miterlimit="10" stroke-opacity="1" fill="#7ABCCC" fill-rule="evenodd" fill-opacity="0"/><path d="M2733.47 774.293 2874.82 805.631 2790.59 879.062 2733.47 774.293Z" stroke="#FFFFFF" stroke-width="4.58333" stroke-linecap="butt" stroke-linejoin="round" stroke-miterlimit="10" stroke-opacity="1" fill="#FFFFFF" fill-rule="evenodd" fill-opacity="0"/><path d="M2733.34 774.315 2846.28 763.331 2875.4 805.391 2733.34 774.315Z" stroke="#FFFFFF" stroke-width="4.58333" stroke-linecap="butt" stroke-linejoin="round" stroke-miterlimit="10" stroke-opacity="1" fill="#FFFFFF" fill-rule="evenodd" fill-opacity="0"/><path d="M0 33.5168 113.635 0 66.549 18.6585 0 33.5168Z" stroke="#FFFFFF" stroke-width="4.58333" stroke-linecap="butt" stroke-linejoin="round" stroke-miterlimit="10" stroke-opacity="1" fill="#FFFFFF" fill-rule="evenodd" fill-opacity="0" transform="matrix(0.707107 0.707107 0.707107 -0.707107 2710.18 798.662)"/><path d="M604.5 837.5 837.5 906.61 837.5 1380.39 604.5 1449.5Z" stroke="#FFFFFF" stroke-width="9.16667" stroke-linecap="butt" stroke-linejoin="round" stroke-miterlimit="10" stroke-opacity="1" fill="none" fill-rule="evenodd"/><text fill="#FFFFFF" fill-opacity="1" font-family="Figtree,Figtree_MSFontService,sans-serif" font-style="normal" font-variant="normal" font-weight="400" font-stretch="normal" font-size="69" text-anchor="start" direction="ltr" writing-mode="lr-tb" unicode-bidi="normal" text-decoration="none" transform="matrix(6.12323e-17 1 -1 6.12323e-17 729.526 1048)">Image </text><text fill="#FFFFFF" fill-opacity="1" font-family="Figtree,Figtree_MSFontService,sans-serif" font-style="normal" font-variant="normal" font-weight="400" font-stretch="normal" font-size="69" text-anchor="start" direction="ltr" writing-mode="lr-tb" unicode-bidi="normal" text-decoration="none" transform="matrix(6.12323e-17 1 -1 6.12323e-17 646.526 1014)">Encoder</text><text fill="#FFFFFF" fill-opacity="1" font-family="Figtree,Figtree_MSFontService,sans-serif" font-style="normal" font-variant="normal" font-weight="400" font-stretch="normal" font-size="69" text-anchor="start" direction="ltr" writing-mode="lr-tb" unicode-bidi="normal" text-decoration="none" transform="matrix(6.12323e-17 1 -1 6.12323e-17 646.526 1272)"> </text><rect x="1363.5" y="562.5" width="94.9999" height="540" stroke="#FFFFFF" stroke-width="9.16667" stroke-linecap="butt" stroke-linejoin="round" stroke-miterlimit="10" stroke-opacity="1" fill="none"/><text fill="#FFFFFF" fill-opacity="1" font-family="Figtree,Figtree_MSFontService,sans-serif" font-style="normal" font-variant="normal" font-weight="400" font-stretch="normal" font-size="69" text-anchor="start" direction="ltr" writing-mode="lr-tb" unicode-bidi="normal" text-decoration="none" transform="matrix(6.12323e-17 1 -1 6.12323e-17 1386.67 591)">3D Scene Coor.</text><text fill="#FFFFFF" fill-opacity="1" font-family="Figtree,Figtree_MSFontService,sans-serif" font-style="normal" font-variant="normal" font-weight="400" font-stretch="normal" font-size="69" text-anchor="start" direction="ltr" writing-mode="lr-tb" unicode-bidi="normal" text-decoration="none" transform="matrix(6.12323e-17 1 -1 6.12323e-17 1386.67 1072)"> </text><rect x="1458.5" y="562.5" width="95.9999" height="540" stroke="#FFFFFF" stroke-width="9.16667" stroke-linecap="butt" stroke-linejoin="round" stroke-miterlimit="10" stroke-opacity="1" fill="none"/><text fill="#FFFFFF" fill-opacity="1" font-family="Figtree,Figtree_MSFontService,sans-serif" font-style="normal" font-variant="normal" font-weight="400" font-stretch="normal" font-size="69" text-anchor="start" direction="ltr" writing-mode="lr-tb" unicode-bidi="normal" text-decoration="none" transform="matrix(6.12323e-17 1 -1 6.12323e-17 1482.4 650)">Uncertainty</text><text fill="#FFFFFF" fill-opacity="1" font-family="Figtree,Figtree_MSFontService,sans-serif" font-style="normal" font-variant="normal" font-weight="400" font-stretch="normal" font-size="69" text-anchor="start" direction="ltr" writing-mode="lr-tb" unicode-bidi="normal" text-decoration="none" transform="matrix(6.12323e-17 1 -1 6.12323e-17 1482.4 1013)"> </text><rect x="858.5" y="406.5" width="96.0002" height="84.9999" stroke="#FFFFFF" stroke-width="9.16667" stroke-linecap="butt" stroke-linejoin="round" stroke-miterlimit="10" stroke-opacity="1" fill="none"/><rect x="858.5" y="510.5" width="96.0002" height="84.9999" stroke="#FFFFFF" stroke-width="9.16667" stroke-linecap="butt" stroke-linejoin="round" stroke-miterlimit="10" stroke-opacity="1" fill="none"/><rect x="858.5" y="614.5" width="96.0002" height="83.9999" stroke="#FFFFFF" stroke-width="9.16667" stroke-linecap="butt" stroke-linejoin="round" stroke-miterlimit="10" stroke-opacity="1" fill="none"/><rect x="858.5" y="718.5" width="96.0002" height="84.0002" stroke="#FFFFFF" stroke-width="9.16667" stroke-linecap="butt" stroke-linejoin="round" stroke-miterlimit="10" stroke-opacity="1" fill="none"/><rect x="230.5" y="829.5" width="352" height="624" stroke="#FFFFFF" stroke-width="9.16667" stroke-linecap="butt" stroke-linejoin="round" stroke-miterlimit="10" stroke-opacity="1" fill="none"/><text fill="#FFFFFF" fill-opacity="1" font-family="Figtree,Figtree_MSFontService,sans-serif" font-style="normal" font-variant="normal" font-weight="400" font-stretch="normal" font-size="69" text-anchor="start" direction="ltr" writing-mode="lr-tb" unicode-bidi="normal" text-decoration="none" transform="matrix(6.12323e-17 1 -1 6.12323e-17 382.273 942)">Query Image</text><text fill="#FFFFFF" fill-opacity="1" font-family="Figtree,Figtree_MSFontService,sans-serif" font-style="normal" font-variant="normal" font-weight="400" font-stretch="normal" font-size="69" text-anchor="start" direction="ltr" writing-mode="lr-tb" unicode-bidi="normal" text-decoration="none" transform="matrix(6.12323e-17 1 -1 6.12323e-17 382.273 1339)"> </text><rect x="1650.5" y="759.5" width="372" height="145" stroke="#FFFFFF" stroke-width="9.16667" stroke-linecap="butt" stroke-linejoin="round" stroke-miterlimit="10" stroke-opacity="1" fill="none"/><text fill="#FFFFFF" fill-opacity="1" font-family="Figtree,Figtree_MSFontService,sans-serif" font-style="normal" font-variant="normal" font-weight="400" font-stretch="normal" font-size="69" text-anchor="start" direction="ltr" writing-mode="lr-tb" unicode-bidi="normal" text-decoration="none" transform="matrix(1 0 0 1 1666.6 855)">Prefiltering</text><text fill="#FFFFFF" fill-opacity="1" font-family="Figtree,Figtree_MSFontService,sans-serif" font-style="normal" font-variant="normal" font-weight="400" font-stretch="normal" font-size="69" text-anchor="start" direction="ltr" writing-mode="lr-tb" unicode-bidi="normal" text-decoration="none" transform="matrix(1 0 0 1 2005.19 855)"> </text><rect x="2112.5" y="734.5" width="428" height="195" stroke="#FFFFFF" stroke-width="9.16667" stroke-linecap="butt" stroke-linejoin="round" stroke-miterlimit="10" stroke-opacity="1" fill="none"/><text fill="#FFFFFF" fill-opacity="1" font-family="Figtree,Figtree_MSFontService,sans-serif" font-style="normal" font-variant="normal" font-weight="400" font-stretch="normal" font-size="69" text-anchor="start" direction="ltr" writing-mode="lr-tb" unicode-bidi="normal" text-decoration="none" transform="matrix(1 0 0 1 2148.8 814)">Robust PnP </text><text fill="#FFFFFF" fill-opacity="1" font-family="Figtree,Figtree_MSFontService,sans-serif" font-style="normal" font-variant="normal" font-weight="400" font-stretch="normal" font-size="69" text-anchor="start" direction="ltr" writing-mode="lr-tb" unicode-bidi="normal" text-decoration="none" transform="matrix(1 0 0 1 2228.71 897)">Solver</text><text fill="#FFFFFF" fill-opacity="1" font-family="Figtree,Figtree_MSFontService,sans-serif" font-style="normal" font-variant="normal" font-weight="400" font-stretch="normal" font-size="69" text-anchor="start" direction="ltr" writing-mode="lr-tb" unicode-bidi="normal" text-decoration="none" transform="matrix(1 0 0 1 2422.93 897)"> </text><text fill="#FFFFFF" fill-opacity="1" font-family="Figtree,Figtree_MSFontService,sans-serif" font-style="normal" font-variant="normal" font-weight="400" font-stretch="normal" font-size="69" text-anchor="start" direction="ltr" writing-mode="lr-tb" unicode-bidi="normal" text-decoration="none" transform="matrix(1 0 0 1 2678.01 1015)">Pose</text><text fill="#FFFFFF" fill-opacity="1" font-family="Figtree,Figtree_MSFontService,sans-serif" font-style="normal" font-variant="normal" font-weight="400" font-stretch="normal" font-size="69" text-anchor="start" direction="ltr" writing-mode="lr-tb" unicode-bidi="normal" text-decoration="none" transform="matrix(1 0 0 1 2827.54 1015)"> </text><path d="M1554.5 827.917 1627.09 827.917 1627.09 837.084 1554.5 837.083ZM1622.51 818.75 1650.01 832.5 1622.51 846.25Z" fill="#FFFFFF" fill-rule="nonzero" fill-opacity="1"/><path d="M2540.5 827.917 2576.88 827.917 2576.88 837.084 2540.5 837.083ZM2572.3 818.75 2599.8 832.5 2572.3 846.25Z" fill="#FFFFFF" fill-rule="nonzero" fill-opacity="1"/><path d="M0 0 45.7186 8.14245" stroke="#00FA00" stroke-width="4.58333" stroke-linecap="butt" stroke-linejoin="round" stroke-miterlimit="10" stroke-opacity="1" fill="none" fill-rule="evenodd" transform="matrix(1 0 0 -1 2634.5 903.642)"/><path d="M2634.5 903.5 2642.41 940.045" stroke="#FF0000" stroke-width="4.58333" stroke-linecap="butt" stroke-linejoin="round" stroke-miterlimit="10" stroke-opacity="1" fill="none" fill-rule="evenodd"/><path d="M2634.5 854.5 2634.5 902.974" stroke="#0432FF" stroke-width="4.58333" stroke-linecap="butt" stroke-linejoin="round" stroke-miterlimit="10" stroke-opacity="1" fill="none" fill-rule="evenodd"/><path d="M0 0 28.2406 27.3095" stroke="#00FA00" stroke-width="4.58333" stroke-linecap="round" stroke-linejoin="round" stroke-miterlimit="10" stroke-opacity="1" fill="none" fill-rule="evenodd" transform="matrix(-1 0 0 1 2731.74 774.5)"/><path d="M2734.5 775.5 2756.68 818.286" stroke="#FF0000" stroke-width="4.58333" stroke-linecap="round" stroke-linejoin="round" stroke-miterlimit="10" stroke-opacity="1" fill="none" fill-rule="evenodd"/><path d="M2653.57 853.209 2649.78 841.57 2648.19 835.811 2646.98 830.212 2646.31 824.802 2646.31 819.623C2646.31 819.49 2646.32 819.358 2646.34 819.227L2647.15 814.72C2647.18 814.55 2647.23 814.385 2647.3 814.226L2649.03 810.168C2649.1 809.99 2649.2 809.823 2649.32 809.67L2652.06 806.103C2652.16 805.976 2652.27 805.859 2652.39 805.755L2656.05 802.636C2656.14 802.559 2656.24 802.49 2656.34 802.428L2660.79 799.694C2660.91 799.622 2661.03 799.562 2661.16 799.512L2668.89 796.493C2670.07 796.033 2671.39 796.615 2671.85 797.794 2672.31 798.973 2671.73 800.302 2670.55 800.762L2662.82 803.781 2663.19 803.6 2658.74 806.334 2659.02 806.126 2655.36 809.244 2655.69 808.895 2652.95 812.462 2653.24 811.965 2651.51 816.023 2651.66 815.528 2650.85 820.035 2650.89 819.638 2650.86 824.241 2651.47 829.254 2652.6 834.59 2654.14 840.151 2657.93 851.791C2658.32 852.994 2657.66 854.287 2656.46 854.679 2655.25 855.071 2653.96 854.413 2653.57 853.209ZM2661.09 786.985 2691.5 791.5 2669.64 813.121Z" fill="#FFFFFF" fill-rule="nonzero" fill-opacity="1"/><path d="M1.84588e-05-4.58333 66.6933-4.58306 66.6933 4.5836-1.84588e-05 4.58333ZM62.11-13.7498 89.6099 0.000360892 62.1099 13.7502Z" fill="#FFFFFF" fill-rule="nonzero" fill-opacity="1" transform="matrix(1 0 0 -1 2022.5 832.5)"/></g></g></svg>
